<svg xmlns="http://www.w3.org/2000/svg" viewBox="0 0 64 64"><defs><linearGradient id="silver" x2=".2" y2="1"><stop stop-color="#fff"></stop><stop offset=".45" stop-color="#e9f6ff"></stop><stop offset=".5" stop-color="#9fb6c8"></stop><stop offset=".78" stop-color="#d7e7f3"></stop><stop offset="1" stop-color="#6e95ac"></stop></linearGradient><radialGradient id="blue" cx=".3" cy=".15" r=".95"><stop stop-color="#b3faff"></stop><stop offset=".45" stop-color="#118fce"></stop><stop offset="1" stop-color="#084988"></stop></radialGradient><radialGradient id="green" cx=".3" cy=".15" r=".95"><stop stop-color="#e5ffbc"></stop><stop offset=".45" stop-color="#89c746"></stop><stop offset="1" stop-color="#358c68"></stop></radialGradient><radialGradient id="purple" cx=".3" cy=".15" r=".95"><stop stop-color="#f2e0ff"></stop><stop offset=".45" stop-color="#ba86eb"></stop><stop offset="1" stop-color="#6754ad"></stop></radialGradient><radialGradient id="gold" cx=".3" cy=".15" r=".95"><stop stop-color="#fff5bf"></stop><stop offset=".45" stop-color="#ffcf52"></stop><stop offset="1" stop-color="#c68a27"></stop></radialGradient><linearGradient id="shine" x2="0" y2="1"><stop stop-color="white" stop-opacity=".95"></stop><stop offset="1" stop-color="white" stop-opacity="0"></stop></linearGradient></defs><path d="M32 3S9 29 9 41a23 20 0 0 0 46 0C55 29 32 3 32 3z" fill="url(#blue)" stroke="#357b9c" stroke-width="2"></path><path d="M27 15C20 24 14 35 16 41c4 7 13-5 15-12 3-8 2-18-4-14z" fill="url(#shine)"></path><path d="M23 51q12 7 22-5" fill="none" stroke="#8df5ed" stroke-width="3"></path></svg>