<svg xmlns="http://www.w3.org/2000/svg" viewBox="0 0 64 64"><defs><linearGradient id="silver" x2=".2" y2="1"><stop stop-color="#fff"/><stop offset=".45" stop-color="#e9f6ff"/><stop offset=".5" stop-color="#9fb6c8"/><stop offset=".78" stop-color="#d7e7f3"/><stop offset="1" stop-color="#6e95ac"/></linearGradient><radialGradient id="gold" cx=".3" cy=".15" r=".95"><stop stop-color="#fff5bf"/><stop offset=".45" stop-color="#ffcf52"/><stop offset="1" stop-color="#c68a27"/></radialGradient><radialGradient id="fire" cx=".5" cy=".7" r=".7"><stop stop-color="#fff6c8"/><stop offset=".4" stop-color="#ffb000"/><stop offset="1" stop-color="#e2521f" stop-opacity="0"/></radialGradient><linearGradient id="wood" x2="1" y2="1"><stop stop-color="#d9a066"/><stop offset="1" stop-color="#8a5a2b"/></linearGradient><linearGradient id="shine" x2="0" y2="1"><stop stop-color="white" stop-opacity=".95"/><stop offset="1" stop-color="white" stop-opacity="0"/></linearGradient></defs><ellipse cx="32" cy="36" rx="20" ry="9" fill="url(#fire)"/><path d="M8 30h36c6 0 10-3 12-6 0 7-5 12-12 13l-4 1v6l6 8H18l6-8v-6l-8-1C11 36 8 33 8 30z" fill="url(#silver)" stroke="#627f91" stroke-width="2" stroke-linejoin="round"/><path d="M12 31h32c4 0 7-1 9-3-2 4-5 6-10 6H15z" fill="url(#shine)" opacity=".8"/><path d="m26 6 16 16-4 4L22 10z" fill="url(#gold)" stroke="#9b6a1c" stroke-width="2" stroke-linejoin="round"/><path d="m33 17 4 4-17 17a2.8 2.8 0 0 1-4-4z" fill="url(#wood)" stroke="#6b4420" stroke-width="1.5"/><path d="m27 8 4 4-3 1-3-3z" fill="white" opacity=".85"/><circle cx="46" cy="20" r="2" fill="#fff6c8"/><circle cx="51" cy="14" r="1.5" fill="#ffcf52"/><circle cx="42" cy="12" r="1.2" fill="#fff6c8"/></svg>
