<svg xmlns="http://www.w3.org/2000/svg" viewBox="0 0 64 64"><defs><linearGradient id="silver" x2=".2" y2="1"><stop stop-color="#fff"/><stop offset=".45" stop-color="#e9f6ff"/><stop offset=".5" stop-color="#9fb6c8"/><stop offset=".78" stop-color="#d7e7f3"/><stop offset="1" stop-color="#6e95ac"/></linearGradient><linearGradient id="glass" x2="1"><stop stop-color="#b9e4ff" stop-opacity=".9"/><stop offset=".5" stop-color="#e8f7ff" stop-opacity=".6"/><stop offset="1" stop-color="#7fb8e6" stop-opacity=".9"/></linearGradient><linearGradient id="shine" x2="0" y2="1"><stop stop-color="white" stop-opacity=".95"/><stop offset="1" stop-color="white" stop-opacity="0"/></linearGradient></defs><path d="M14 18h36l-4 40a4 4 0 0 1-4 3.6H22a4 4 0 0 1-4-3.6z" fill="url(#glass)" stroke="#4f7896" stroke-width="2"/><path d="M22 24v30M32 24v30M42 24v30" stroke="#6f9bbd" stroke-width="2.5" stroke-linecap="round" opacity=".7"/><rect x="10" y="12" width="44" height="8" rx="4" fill="url(#silver)" stroke="#627f91" stroke-width="2"/><path d="M26 12V8a3 3 0 0 1 3-3h6a3 3 0 0 1 3 3v4" fill="none" stroke="#627f91" stroke-width="3"/><path d="M17 21h14l-2 30h-9z" fill="url(#shine)" opacity=".5"/><path d="M24 30c4-3 10-3 14 1" fill="none" stroke="#ffffff" stroke-width="2" opacity=".8"/><rect x="30" y="34" width="10" height="13" rx="1" fill="#fff" stroke="#8aa" transform="rotate(-12 35 40)"/></svg>
