<svg xmlns="http://www.w3.org/2000/svg" viewBox="0 0 64 24" width="256" height="96" shape-rendering="crispEdges"><title>Сбой системы</title><rect x="0" y="0" width="64" height="1" fill="#26140a"/><rect x="0" y="1" width="64" height="1" fill="#26140a"/><rect x="0" y="2" width="16" height="1" fill="#26140a"/><rect x="16" y="2" width="30" height="1" fill="#2b3036"/><rect x="46" y="2" width="18" height="1" fill="#26140a"/><rect x="0" y="3" width="10" height="1" fill="#26140a"/><rect x="10" y="3" width="1" height="1" fill="#5a4a42"/><rect x="11" y="3" width="2" height="1" fill="#26140a"/><rect x="13" y="3" width="1" height="1" fill="#ffb000"/><rect x="14" y="3" width="2" height="1" fill="#26140a"/><rect x="16" y="3" width="1" height="1" fill="#2b3036"/><rect x="17" y="3" width="28" height="1" fill="#8c96a3"/><rect x="45" y="3" width="1" height="1" fill="#2b3036"/><rect x="46" y="3" width="2" height="1" fill="#26140a"/><rect x="48" y="3" width="1" height="1" fill="#ffb000"/><rect x="49" y="3" width="15" height="1" fill="#26140a"/><rect x="0" y="4" width="8" height="1" fill="#26140a"/><rect x="8" y="4" width="1" height="1" fill="#7a6a60"/><rect x="9" y="4" width="7" height="1" fill="#26140a"/><rect x="16" y="4" width="1" height="1" fill="#2b3036"/><rect x="17" y="4" width="28" height="1" fill="#5b6470"/><rect x="45" y="4" width="1" height="1" fill="#2b3036"/><rect x="46" y="4" width="8" height="1" fill="#26140a"/><rect x="54" y="4" width="4" height="1" fill="#ffe14a"/><rect x="58" y="4" width="6" height="1" fill="#26140a"/><rect x="0" y="5" width="6" height="1" fill="#26140a"/><rect x="6" y="5" width="1" height="1" fill="#5a4a42"/><rect x="7" y="5" width="2" height="1" fill="#26140a"/><rect x="9" y="5" width="1" height="1" fill="#5a4a42"/><rect x="10" y="5" width="6" height="1" fill="#26140a"/><rect x="16" y="5" width="1" height="1" fill="#2b3036"/><rect x="17" y="5" width="3" height="1" fill="#5b6470"/><rect x="20" y="5" width="22" height="1" fill="#0a0a0a"/><rect x="42" y="5" width="3" height="1" fill="#5b6470"/><rect x="45" y="5" width="1" height="1" fill="#2b3036"/><rect x="46" y="5" width="7" height="1" fill="#26140a"/><rect x="53" y="5" width="4" height="1" fill="#ffe14a"/><rect x="57" y="5" width="3" height="1" fill="#26140a"/><rect x="60" y="5" width="1" height="1" fill="#ffb000"/><rect x="61" y="5" width="3" height="1" fill="#26140a"/><rect x="0" y="6" width="5" height="1" fill="#26140a"/><rect x="5" y="6" width="1" height="1" fill="#5a4a42"/><rect x="6" y="6" width="1" height="1" fill="#26140a"/><rect x="7" y="6" width="1" height="1" fill="#7a6a60"/><rect x="8" y="6" width="3" height="1" fill="#26140a"/><rect x="11" y="6" width="1" height="1" fill="#ffb000"/><rect x="12" y="6" width="4" height="1" fill="#26140a"/><rect x="16" y="6" width="1" height="1" fill="#2b3036"/><rect x="17" y="6" width="3" height="1" fill="#5b6470"/><rect x="20" y="6" width="3" height="1" fill="#0a0a0a"/><rect x="23" y="6" width="3" height="1" fill="#ff3b30"/><rect x="26" y="6" width="1" height="1" fill="#0a0a0a"/><rect x="27" y="6" width="3" height="1" fill="#ff3b30"/><rect x="30" y="6" width="3" height="1" fill="#0a0a0a"/><rect x="33" y="6" width="3" height="1" fill="#ff3b30"/><rect x="36" y="6" width="1" height="1" fill="#0a0a0a"/><rect x="37" y="6" width="3" height="1" fill="#ff3b30"/><rect x="40" y="6" width="2" height="1" fill="#0a0a0a"/><rect x="42" y="6" width="3" height="1" fill="#5b6470"/><rect x="45" y="6" width="1" height="1" fill="#2b3036"/><rect x="46" y="6" width="6" height="1" fill="#26140a"/><rect x="52" y="6" width="4" height="1" fill="#ffe14a"/><rect x="56" y="6" width="8" height="1" fill="#26140a"/><rect x="0" y="7" width="16" height="1" fill="#26140a"/><rect x="16" y="7" width="1" height="1" fill="#2b3036"/><rect x="17" y="7" width="3" height="1" fill="#5b6470"/><rect x="20" y="7" width="3" height="1" fill="#0a0a0a"/><rect x="23" y="7" width="1" height="1" fill="#ff3b30"/><rect x="24" y="7" width="1" height="1" fill="#0a0a0a"/><rect x="25" y="7" width="1" height="1" fill="#ff3b30"/><rect x="26" y="7" width="1" height="1" fill="#0a0a0a"/><rect x="27" y="7" width="1" height="1" fill="#ff3b30"/><rect x="28" y="7" width="1" height="1" fill="#0a0a0a"/><rect x="29" y="7" width="1" height="1" fill="#ff3b30"/><rect x="30" y="7" width="1" height="1" fill="#0a0a0a"/><rect x="31" y="7" width="1" height="1" fill="#ff3b30"/><rect x="32" y="7" width="1" height="1" fill="#0a0a0a"/><rect x="33" y="7" width="1" height="1" fill="#ff3b30"/><rect x="34" y="7" width="1" height="1" fill="#0a0a0a"/><rect x="35" y="7" width="1" height="1" fill="#ff3b30"/><rect x="36" y="7" width="3" height="1" fill="#0a0a0a"/><rect x="39" y="7" width="1" height="1" fill="#ff3b30"/><rect x="40" y="7" width="2" height="1" fill="#0a0a0a"/><rect x="42" y="7" width="3" height="1" fill="#5b6470"/><rect x="45" y="7" width="1" height="1" fill="#2b3036"/><rect x="46" y="7" width="5" height="1" fill="#26140a"/><rect x="51" y="7" width="7" height="1" fill="#ffe14a"/><rect x="58" y="7" width="6" height="1" fill="#26140a"/><rect x="0" y="8" width="6" height="1" fill="#26140a"/><rect x="6" y="8" width="1" height="1" fill="#7a6a60"/><rect x="7" y="8" width="9" height="1" fill="#26140a"/><rect x="16" y="8" width="1" height="1" fill="#2b3036"/><rect x="17" y="8" width="3" height="1" fill="#5b6470"/><rect x="20" y="8" width="3" height="1" fill="#0a0a0a"/><rect x="23" y="8" width="1" height="1" fill="#ff3b30"/><rect x="24" y="8" width="1" height="1" fill="#0a0a0a"/><rect x="25" y="8" width="1" height="1" fill="#ff3b30"/><rect x="26" y="8" width="1" height="1" fill="#0a0a0a"/><rect x="27" y="8" width="1" height="1" fill="#ff3b30"/><rect x="28" y="8" width="1" height="1" fill="#0a0a0a"/><rect x="29" y="8" width="1" height="1" fill="#ff3b30"/><rect x="30" y="8" width="3" height="1" fill="#0a0a0a"/><rect x="33" y="8" width="1" height="1" fill="#ff3b30"/><rect x="34" y="8" width="1" height="1" fill="#0a0a0a"/><rect x="35" y="8" width="1" height="1" fill="#ff3b30"/><rect x="36" y="8" width="3" height="1" fill="#0a0a0a"/><rect x="39" y="8" width="1" height="1" fill="#ff3b30"/><rect x="40" y="8" width="2" height="1" fill="#0a0a0a"/><rect x="42" y="8" width="3" height="1" fill="#5b6470"/><rect x="45" y="8" width="1" height="1" fill="#2b3036"/><rect x="46" y="8" width="7" height="1" fill="#26140a"/><rect x="53" y="8" width="4" height="1" fill="#ffe14a"/><rect x="57" y="8" width="7" height="1" fill="#26140a"/><rect x="0" y="9" width="1" height="1" fill="#26140a"/><rect x="1" y="9" width="1" height="1" fill="#311a0c"/><rect x="2" y="9" width="1" height="1" fill="#26140a"/><rect x="3" y="9" width="1" height="1" fill="#311a0c"/><rect x="4" y="9" width="1" height="1" fill="#5a4a42"/><rect x="5" y="9" width="1" height="1" fill="#311a0c"/><rect x="6" y="9" width="1" height="1" fill="#26140a"/><rect x="7" y="9" width="1" height="1" fill="#311a0c"/><rect x="8" y="9" width="1" height="1" fill="#26140a"/><rect x="9" y="9" width="1" height="1" fill="#311a0c"/><rect x="10" y="9" width="1" height="1" fill="#26140a"/><rect x="11" y="9" width="1" height="1" fill="#311a0c"/><rect x="12" y="9" width="1" height="1" fill="#26140a"/><rect x="13" y="9" width="1" height="1" fill="#311a0c"/><rect x="14" y="9" width="1" height="1" fill="#26140a"/><rect x="15" y="9" width="1" height="1" fill="#311a0c"/><rect x="16" y="9" width="1" height="1" fill="#2b3036"/><rect x="17" y="9" width="3" height="1" fill="#5b6470"/><rect x="20" y="9" width="3" height="1" fill="#0a0a0a"/><rect x="23" y="9" width="1" height="1" fill="#ff3b30"/><rect x="24" y="9" width="1" height="1" fill="#0a0a0a"/><rect x="25" y="9" width="1" height="1" fill="#ff3b30"/><rect x="26" y="9" width="1" height="1" fill="#0a0a0a"/><rect x="27" y="9" width="1" height="1" fill="#ff3b30"/><rect x="28" y="9" width="1" height="1" fill="#0a0a0a"/><rect x="29" y="9" width="1" height="1" fill="#ff3b30"/><rect x="30" y="9" width="1" height="1" fill="#0a0a0a"/><rect x="31" y="9" width="1" height="1" fill="#ff3b30"/><rect x="32" y="9" width="1" height="1" fill="#0a0a0a"/><rect x="33" y="9" width="1" height="1" fill="#ff3b30"/><rect x="34" y="9" width="1" height="1" fill="#0a0a0a"/><rect x="35" y="9" width="1" height="1" fill="#ff3b30"/><rect x="36" y="9" width="3" height="1" fill="#0a0a0a"/><rect x="39" y="9" width="1" height="1" fill="#ff3b30"/><rect x="40" y="9" width="2" height="1" fill="#0a0a0a"/><rect x="42" y="9" width="3" height="1" fill="#5b6470"/><rect x="45" y="9" width="1" height="1" fill="#2b3036"/><rect x="46" y="9" width="1" height="1" fill="#26140a"/><rect x="47" y="9" width="1" height="1" fill="#311a0c"/><rect x="48" y="9" width="1" height="1" fill="#26140a"/><rect x="49" y="9" width="1" height="1" fill="#311a0c"/><rect x="50" y="9" width="1" height="1" fill="#26140a"/><rect x="51" y="9" width="1" height="1" fill="#311a0c"/><rect x="52" y="9" width="4" height="1" fill="#ffe14a"/><rect x="56" y="9" width="1" height="1" fill="#26140a"/><rect x="57" y="9" width="1" height="1" fill="#311a0c"/><rect x="58" y="9" width="1" height="1" fill="#26140a"/><rect x="59" y="9" width="1" height="1" fill="#311a0c"/><rect x="60" y="9" width="1" height="1" fill="#26140a"/><rect x="61" y="9" width="1" height="1" fill="#311a0c"/><rect x="62" y="9" width="1" height="1" fill="#26140a"/><rect x="63" y="9" width="1" height="1" fill="#311a0c"/><rect x="0" y="10" width="1" height="1" fill="#311a0c"/><rect x="1" y="10" width="1" height="1" fill="#26140a"/><rect x="2" y="10" width="1" height="1" fill="#311a0c"/><rect x="3" y="10" width="1" height="1" fill="#26140a"/><rect x="4" y="10" width="1" height="1" fill="#311a0c"/><rect x="5" y="10" width="1" height="1" fill="#26140a"/><rect x="6" y="10" width="1" height="1" fill="#311a0c"/><rect x="7" y="10" width="1" height="1" fill="#26140a"/><rect x="8" y="10" width="1" height="1" fill="#311a0c"/><rect x="9" y="10" width="1" height="1" fill="#26140a"/><rect x="10" y="10" width="1" height="1" fill="#311a0c"/><rect x="11" y="10" width="1" height="1" fill="#26140a"/><rect x="12" y="10" width="1" height="1" fill="#311a0c"/><rect x="13" y="10" width="1" height="1" fill="#26140a"/><rect x="14" y="10" width="1" height="1" fill="#311a0c"/><rect x="15" y="10" width="1" height="1" fill="#26140a"/><rect x="16" y="10" width="1" height="1" fill="#2b3036"/><rect x="17" y="10" width="3" height="1" fill="#5b6470"/><rect x="20" y="10" width="3" height="1" fill="#0a0a0a"/><rect x="23" y="10" width="3" height="1" fill="#ff3b30"/><rect x="26" y="10" width="1" height="1" fill="#0a0a0a"/><rect x="27" y="10" width="3" height="1" fill="#ff3b30"/><rect x="30" y="10" width="3" height="1" fill="#0a0a0a"/><rect x="33" y="10" width="3" height="1" fill="#ff3b30"/><rect x="36" y="10" width="3" height="1" fill="#0a0a0a"/><rect x="39" y="10" width="1" height="1" fill="#ff3b30"/><rect x="40" y="10" width="2" height="1" fill="#0a0a0a"/><rect x="42" y="10" width="3" height="1" fill="#5b6470"/><rect x="45" y="10" width="1" height="1" fill="#2b3036"/><rect x="46" y="10" width="1" height="1" fill="#311a0c"/><rect x="47" y="10" width="1" height="1" fill="#26140a"/><rect x="48" y="10" width="1" height="1" fill="#311a0c"/><rect x="49" y="10" width="1" height="1" fill="#26140a"/><rect x="50" y="10" width="1" height="1" fill="#311a0c"/><rect x="51" y="10" width="4" height="1" fill="#ffe14a"/><rect x="55" y="10" width="1" height="1" fill="#26140a"/><rect x="56" y="10" width="1" height="1" fill="#311a0c"/><rect x="57" y="10" width="1" height="1" fill="#26140a"/><rect x="58" y="10" width="1" height="1" fill="#311a0c"/><rect x="59" y="10" width="1" height="1" fill="#26140a"/><rect x="60" y="10" width="1" height="1" fill="#311a0c"/><rect x="61" y="10" width="1" height="1" fill="#26140a"/><rect x="62" y="10" width="1" height="1" fill="#311a0c"/><rect x="63" y="10" width="1" height="1" fill="#26140a"/><rect x="0" y="11" width="1" height="1" fill="#26140a"/><rect x="1" y="11" width="1" height="1" fill="#311a0c"/><rect x="2" y="11" width="1" height="1" fill="#26140a"/><rect x="3" y="11" width="1" height="1" fill="#311a0c"/><rect x="4" y="11" width="1" height="1" fill="#26140a"/><rect x="5" y="11" width="1" height="1" fill="#311a0c"/><rect x="6" y="11" width="1" height="1" fill="#26140a"/><rect x="7" y="11" width="1" height="1" fill="#311a0c"/><rect x="8" y="11" width="1" height="1" fill="#26140a"/><rect x="9" y="11" width="1" height="1" fill="#311a0c"/><rect x="10" y="11" width="1" height="1" fill="#26140a"/><rect x="11" y="11" width="1" height="1" fill="#311a0c"/><rect x="12" y="11" width="1" height="1" fill="#26140a"/><rect x="13" y="11" width="1" height="1" fill="#311a0c"/><rect x="14" y="11" width="1" height="1" fill="#26140a"/><rect x="15" y="11" width="1" height="1" fill="#311a0c"/><rect x="16" y="11" width="1" height="1" fill="#2b3036"/><rect x="17" y="11" width="3" height="1" fill="#5b6470"/><rect x="20" y="11" width="22" height="1" fill="#0a0a0a"/><rect x="42" y="11" width="3" height="1" fill="#5b6470"/><rect x="45" y="11" width="1" height="1" fill="#2b3036"/><rect x="46" y="11" width="1" height="1" fill="#26140a"/><rect x="47" y="11" width="1" height="1" fill="#311a0c"/><rect x="48" y="11" width="1" height="1" fill="#26140a"/><rect x="49" y="11" width="1" height="1" fill="#311a0c"/><rect x="50" y="11" width="4" height="1" fill="#ffe14a"/><rect x="54" y="11" width="1" height="1" fill="#26140a"/><rect x="55" y="11" width="1" height="1" fill="#311a0c"/><rect x="56" y="11" width="1" height="1" fill="#26140a"/><rect x="57" y="11" width="1" height="1" fill="#311a0c"/><rect x="58" y="11" width="1" height="1" fill="#26140a"/><rect x="59" y="11" width="1" height="1" fill="#311a0c"/><rect x="60" y="11" width="1" height="1" fill="#26140a"/><rect x="61" y="11" width="1" height="1" fill="#311a0c"/><rect x="62" y="11" width="1" height="1" fill="#26140a"/><rect x="63" y="11" width="1" height="1" fill="#311a0c"/><rect x="0" y="12" width="1" height="1" fill="#311a0c"/><rect x="1" y="12" width="1" height="1" fill="#26140a"/><rect x="2" y="12" width="1" height="1" fill="#311a0c"/><rect x="3" y="12" width="1" height="1" fill="#26140a"/><rect x="4" y="12" width="1" height="1" fill="#311a0c"/><rect x="5" y="12" width="1" height="1" fill="#26140a"/><rect x="6" y="12" width="1" height="1" fill="#311a0c"/><rect x="7" y="12" width="1" height="1" fill="#26140a"/><rect x="8" y="12" width="1" height="1" fill="#311a0c"/><rect x="9" y="12" width="1" height="1" fill="#26140a"/><rect x="10" y="12" width="1" height="1" fill="#311a0c"/><rect x="11" y="12" width="1" height="1" fill="#26140a"/><rect x="12" y="12" width="1" height="1" fill="#311a0c"/><rect x="13" y="12" width="1" height="1" fill="#26140a"/><rect x="14" y="12" width="1" height="1" fill="#311a0c"/><rect x="15" y="12" width="1" height="1" fill="#26140a"/><rect x="16" y="12" width="1" height="1" fill="#2b3036"/><rect x="17" y="12" width="28" height="1" fill="#5b6470"/><rect x="45" y="12" width="1" height="1" fill="#2b3036"/><rect x="46" y="12" width="1" height="1" fill="#311a0c"/><rect x="47" y="12" width="1" height="1" fill="#ffb000"/><rect x="48" y="12" width="1" height="1" fill="#311a0c"/><rect x="49" y="12" width="1" height="1" fill="#26140a"/><rect x="50" y="12" width="1" height="1" fill="#311a0c"/><rect x="51" y="12" width="2" height="1" fill="#ffe14a"/><rect x="53" y="12" width="1" height="1" fill="#26140a"/><rect x="54" y="12" width="1" height="1" fill="#311a0c"/><rect x="55" y="12" width="1" height="1" fill="#26140a"/><rect x="56" y="12" width="1" height="1" fill="#311a0c"/><rect x="57" y="12" width="1" height="1" fill="#26140a"/><rect x="58" y="12" width="1" height="1" fill="#311a0c"/><rect x="59" y="12" width="1" height="1" fill="#26140a"/><rect x="60" y="12" width="1" height="1" fill="#311a0c"/><rect x="61" y="12" width="1" height="1" fill="#26140a"/><rect x="62" y="12" width="1" height="1" fill="#311a0c"/><rect x="63" y="12" width="1" height="1" fill="#26140a"/><rect x="0" y="13" width="1" height="1" fill="#26140a"/><rect x="1" y="13" width="1" height="1" fill="#311a0c"/><rect x="2" y="13" width="1" height="1" fill="#26140a"/><rect x="3" y="13" width="1" height="1" fill="#311a0c"/><rect x="4" y="13" width="1" height="1" fill="#26140a"/><rect x="5" y="13" width="1" height="1" fill="#311a0c"/><rect x="6" y="13" width="1" height="1" fill="#26140a"/><rect x="7" y="13" width="1" height="1" fill="#311a0c"/><rect x="8" y="13" width="1" height="1" fill="#26140a"/><rect x="9" y="13" width="1" height="1" fill="#311a0c"/><rect x="10" y="13" width="1" height="1" fill="#26140a"/><rect x="11" y="13" width="1" height="1" fill="#311a0c"/><rect x="12" y="13" width="1" height="1" fill="#26140a"/><rect x="13" y="13" width="1" height="1" fill="#311a0c"/><rect x="14" y="13" width="1" height="1" fill="#26140a"/><rect x="15" y="13" width="1" height="1" fill="#311a0c"/><rect x="16" y="13" width="1" height="1" fill="#2b3036"/><rect x="17" y="13" width="2" height="1" fill="#5b6470"/><rect x="19" y="13" width="1" height="1" fill="#c0c0c0"/><rect x="20" y="13" width="22" height="1" fill="#e8412c"/><rect x="42" y="13" width="1" height="1" fill="#c0c0c0"/><rect x="43" y="13" width="2" height="1" fill="#5b6470"/><rect x="45" y="13" width="1" height="1" fill="#2b3036"/><rect x="46" y="13" width="1" height="1" fill="#26140a"/><rect x="47" y="13" width="1" height="1" fill="#311a0c"/><rect x="48" y="13" width="1" height="1" fill="#26140a"/><rect x="49" y="13" width="1" height="1" fill="#311a0c"/><rect x="50" y="13" width="1" height="1" fill="#ffe14a"/><rect x="51" y="13" width="1" height="1" fill="#311a0c"/><rect x="52" y="13" width="1" height="1" fill="#26140a"/><rect x="53" y="13" width="1" height="1" fill="#311a0c"/><rect x="54" y="13" width="1" height="1" fill="#26140a"/><rect x="55" y="13" width="1" height="1" fill="#311a0c"/><rect x="56" y="13" width="1" height="1" fill="#26140a"/><rect x="57" y="13" width="1" height="1" fill="#311a0c"/><rect x="58" y="13" width="1" height="1" fill="#26140a"/><rect x="59" y="13" width="1" height="1" fill="#311a0c"/><rect x="60" y="13" width="1" height="1" fill="#26140a"/><rect x="61" y="13" width="1" height="1" fill="#311a0c"/><rect x="62" y="13" width="1" height="1" fill="#26140a"/><rect x="63" y="13" width="1" height="1" fill="#311a0c"/><rect x="0" y="14" width="1" height="1" fill="#311a0c"/><rect x="1" y="14" width="1" height="1" fill="#26140a"/><rect x="2" y="14" width="1" height="1" fill="#311a0c"/><rect x="3" y="14" width="1" height="1" fill="#26140a"/><rect x="4" y="14" width="1" height="1" fill="#311a0c"/><rect x="5" y="14" width="1" height="1" fill="#26140a"/><rect x="6" y="14" width="1" height="1" fill="#311a0c"/><rect x="7" y="14" width="1" height="1" fill="#26140a"/><rect x="8" y="14" width="1" height="1" fill="#311a0c"/><rect x="9" y="14" width="1" height="1" fill="#26140a"/><rect x="10" y="14" width="1" height="1" fill="#311a0c"/><rect x="11" y="14" width="1" height="1" fill="#26140a"/><rect x="12" y="14" width="1" height="1" fill="#311a0c"/><rect x="13" y="14" width="1" height="1" fill="#26140a"/><rect x="14" y="14" width="1" height="1" fill="#311a0c"/><rect x="15" y="14" width="1" height="1" fill="#26140a"/><rect x="16" y="14" width="1" height="1" fill="#2b3036"/><rect x="17" y="14" width="2" height="1" fill="#5b6470"/><rect x="19" y="14" width="1" height="1" fill="#c0c0c0"/><rect x="20" y="14" width="9" height="1" fill="#2f7bff"/><rect x="29" y="14" width="1" height="1" fill="#f5c400"/><rect x="30" y="14" width="12" height="1" fill="#2f7bff"/><rect x="42" y="14" width="1" height="1" fill="#c0c0c0"/><rect x="43" y="14" width="2" height="1" fill="#5b6470"/><rect x="45" y="14" width="1" height="1" fill="#2b3036"/><rect x="46" y="14" width="1" height="1" fill="#311a0c"/><rect x="47" y="14" width="1" height="1" fill="#26140a"/><rect x="48" y="14" width="1" height="1" fill="#311a0c"/><rect x="49" y="14" width="1" height="1" fill="#26140a"/><rect x="50" y="14" width="1" height="1" fill="#311a0c"/><rect x="51" y="14" width="1" height="1" fill="#26140a"/><rect x="52" y="14" width="1" height="1" fill="#311a0c"/><rect x="53" y="14" width="1" height="1" fill="#26140a"/><rect x="54" y="14" width="1" height="1" fill="#311a0c"/><rect x="55" y="14" width="1" height="1" fill="#26140a"/><rect x="56" y="14" width="1" height="1" fill="#311a0c"/><rect x="57" y="14" width="1" height="1" fill="#ffb000"/><rect x="58" y="14" width="1" height="1" fill="#311a0c"/><rect x="59" y="14" width="1" height="1" fill="#26140a"/><rect x="60" y="14" width="1" height="1" fill="#311a0c"/><rect x="61" y="14" width="1" height="1" fill="#26140a"/><rect x="62" y="14" width="1" height="1" fill="#311a0c"/><rect x="63" y="14" width="1" height="1" fill="#26140a"/><rect x="0" y="15" width="1" height="1" fill="#26140a"/><rect x="1" y="15" width="1" height="1" fill="#311a0c"/><rect x="2" y="15" width="1" height="1" fill="#26140a"/><rect x="3" y="15" width="1" height="1" fill="#311a0c"/><rect x="4" y="15" width="1" height="1" fill="#26140a"/><rect x="5" y="15" width="1" height="1" fill="#311a0c"/><rect x="6" y="15" width="1" height="1" fill="#26140a"/><rect x="7" y="15" width="1" height="1" fill="#311a0c"/><rect x="8" y="15" width="1" height="1" fill="#26140a"/><rect x="9" y="15" width="1" height="1" fill="#311a0c"/><rect x="10" y="15" width="1" height="1" fill="#26140a"/><rect x="11" y="15" width="1" height="1" fill="#311a0c"/><rect x="12" y="15" width="1" height="1" fill="#26140a"/><rect x="13" y="15" width="1" height="1" fill="#311a0c"/><rect x="14" y="15" width="1" height="1" fill="#26140a"/><rect x="15" y="15" width="1" height="1" fill="#311a0c"/><rect x="16" y="15" width="1" height="1" fill="#2b3036"/><rect x="17" y="15" width="2" height="1" fill="#5b6470"/><rect x="19" y="15" width="1" height="1" fill="#c0c0c0"/><rect x="20" y="15" width="10" height="1" fill="#f5c400"/><rect x="30" y="15" width="2" height="1" fill="#5b6470"/><rect x="32" y="15" width="10" height="1" fill="#f5c400"/><rect x="42" y="15" width="1" height="1" fill="#c0c0c0"/><rect x="43" y="15" width="2" height="1" fill="#5b6470"/><rect x="45" y="15" width="1" height="1" fill="#2b3036"/><rect x="46" y="15" width="1" height="1" fill="#26140a"/><rect x="47" y="15" width="1" height="1" fill="#311a0c"/><rect x="48" y="15" width="1" height="1" fill="#26140a"/><rect x="49" y="15" width="1" height="1" fill="#311a0c"/><rect x="50" y="15" width="1" height="1" fill="#26140a"/><rect x="51" y="15" width="1" height="1" fill="#311a0c"/><rect x="52" y="15" width="1" height="1" fill="#26140a"/><rect x="53" y="15" width="1" height="1" fill="#311a0c"/><rect x="54" y="15" width="1" height="1" fill="#26140a"/><rect x="55" y="15" width="1" height="1" fill="#311a0c"/><rect x="56" y="15" width="1" height="1" fill="#26140a"/><rect x="57" y="15" width="1" height="1" fill="#311a0c"/><rect x="58" y="15" width="1" height="1" fill="#26140a"/><rect x="59" y="15" width="1" height="1" fill="#311a0c"/><rect x="60" y="15" width="1" height="1" fill="#26140a"/><rect x="61" y="15" width="1" height="1" fill="#311a0c"/><rect x="62" y="15" width="1" height="1" fill="#26140a"/><rect x="63" y="15" width="1" height="1" fill="#311a0c"/><rect x="0" y="16" width="1" height="1" fill="#311a0c"/><rect x="1" y="16" width="1" height="1" fill="#26140a"/><rect x="2" y="16" width="1" height="1" fill="#311a0c"/><rect x="3" y="16" width="1" height="1" fill="#26140a"/><rect x="4" y="16" width="1" height="1" fill="#311a0c"/><rect x="5" y="16" width="1" height="1" fill="#26140a"/><rect x="6" y="16" width="1" height="1" fill="#311a0c"/><rect x="7" y="16" width="1" height="1" fill="#26140a"/><rect x="8" y="16" width="1" height="1" fill="#311a0c"/><rect x="9" y="16" width="1" height="1" fill="#26140a"/><rect x="10" y="16" width="1" height="1" fill="#311a0c"/><rect x="11" y="16" width="1" height="1" fill="#26140a"/><rect x="12" y="16" width="1" height="1" fill="#311a0c"/><rect x="13" y="16" width="1" height="1" fill="#26140a"/><rect x="14" y="16" width="1" height="1" fill="#311a0c"/><rect x="15" y="16" width="1" height="1" fill="#26140a"/><rect x="16" y="16" width="1" height="1" fill="#2b3036"/><rect x="17" y="16" width="2" height="1" fill="#5b6470"/><rect x="19" y="16" width="1" height="1" fill="#c0c0c0"/><rect x="20" y="16" width="12" height="1" fill="#35c24a"/><rect x="32" y="16" width="1" height="1" fill="#f5c400"/><rect x="33" y="16" width="9" height="1" fill="#35c24a"/><rect x="42" y="16" width="1" height="1" fill="#c0c0c0"/><rect x="43" y="16" width="2" height="1" fill="#5b6470"/><rect x="45" y="16" width="1" height="1" fill="#2b3036"/><rect x="46" y="16" width="1" height="1" fill="#311a0c"/><rect x="47" y="16" width="1" height="1" fill="#26140a"/><rect x="48" y="16" width="1" height="1" fill="#311a0c"/><rect x="49" y="16" width="1" height="1" fill="#26140a"/><rect x="50" y="16" width="1" height="1" fill="#311a0c"/><rect x="51" y="16" width="1" height="1" fill="#26140a"/><rect x="52" y="16" width="1" height="1" fill="#311a0c"/><rect x="53" y="16" width="1" height="1" fill="#26140a"/><rect x="54" y="16" width="1" height="1" fill="#311a0c"/><rect x="55" y="16" width="1" height="1" fill="#26140a"/><rect x="56" y="16" width="1" height="1" fill="#311a0c"/><rect x="57" y="16" width="1" height="1" fill="#26140a"/><rect x="58" y="16" width="1" height="1" fill="#311a0c"/><rect x="59" y="16" width="1" height="1" fill="#26140a"/><rect x="60" y="16" width="1" height="1" fill="#311a0c"/><rect x="61" y="16" width="1" height="1" fill="#26140a"/><rect x="62" y="16" width="1" height="1" fill="#311a0c"/><rect x="63" y="16" width="1" height="1" fill="#26140a"/><rect x="0" y="17" width="1" height="1" fill="#26140a"/><rect x="1" y="17" width="1" height="1" fill="#311a0c"/><rect x="2" y="17" width="1" height="1" fill="#26140a"/><rect x="3" y="17" width="1" height="1" fill="#311a0c"/><rect x="4" y="17" width="1" height="1" fill="#26140a"/><rect x="5" y="17" width="1" height="1" fill="#311a0c"/><rect x="6" y="17" width="1" height="1" fill="#26140a"/><rect x="7" y="17" width="1" height="1" fill="#311a0c"/><rect x="8" y="17" width="1" height="1" fill="#26140a"/><rect x="9" y="17" width="1" height="1" fill="#311a0c"/><rect x="10" y="17" width="1" height="1" fill="#26140a"/><rect x="11" y="17" width="1" height="1" fill="#311a0c"/><rect x="12" y="17" width="1" height="1" fill="#26140a"/><rect x="13" y="17" width="1" height="1" fill="#311a0c"/><rect x="14" y="17" width="1" height="1" fill="#26140a"/><rect x="15" y="17" width="1" height="1" fill="#311a0c"/><rect x="16" y="17" width="1" height="1" fill="#2b3036"/><rect x="17" y="17" width="28" height="1" fill="#5b6470"/><rect x="45" y="17" width="1" height="1" fill="#2b3036"/><rect x="46" y="17" width="1" height="1" fill="#26140a"/><rect x="47" y="17" width="1" height="1" fill="#311a0c"/><rect x="48" y="17" width="1" height="1" fill="#26140a"/><rect x="49" y="17" width="1" height="1" fill="#311a0c"/><rect x="50" y="17" width="1" height="1" fill="#26140a"/><rect x="51" y="17" width="1" height="1" fill="#311a0c"/><rect x="52" y="17" width="1" height="1" fill="#26140a"/><rect x="53" y="17" width="1" height="1" fill="#311a0c"/><rect x="54" y="17" width="1" height="1" fill="#26140a"/><rect x="55" y="17" width="1" height="1" fill="#311a0c"/><rect x="56" y="17" width="1" height="1" fill="#26140a"/><rect x="57" y="17" width="1" height="1" fill="#311a0c"/><rect x="58" y="17" width="1" height="1" fill="#26140a"/><rect x="59" y="17" width="1" height="1" fill="#311a0c"/><rect x="60" y="17" width="1" height="1" fill="#26140a"/><rect x="61" y="17" width="1" height="1" fill="#311a0c"/><rect x="62" y="17" width="1" height="1" fill="#26140a"/><rect x="63" y="17" width="1" height="1" fill="#311a0c"/><rect x="0" y="18" width="1" height="1" fill="#311a0c"/><rect x="1" y="18" width="1" height="1" fill="#26140a"/><rect x="2" y="18" width="1" height="1" fill="#311a0c"/><rect x="3" y="18" width="1" height="1" fill="#26140a"/><rect x="4" y="18" width="1" height="1" fill="#311a0c"/><rect x="5" y="18" width="1" height="1" fill="#26140a"/><rect x="6" y="18" width="1" height="1" fill="#311a0c"/><rect x="7" y="18" width="1" height="1" fill="#26140a"/><rect x="8" y="18" width="1" height="1" fill="#311a0c"/><rect x="9" y="18" width="1" height="1" fill="#26140a"/><rect x="10" y="18" width="1" height="1" fill="#311a0c"/><rect x="11" y="18" width="1" height="1" fill="#26140a"/><rect x="12" y="18" width="1" height="1" fill="#311a0c"/><rect x="13" y="18" width="1" height="1" fill="#26140a"/><rect x="14" y="18" width="1" height="1" fill="#311a0c"/><rect x="15" y="18" width="1" height="1" fill="#26140a"/><rect x="16" y="18" width="1" height="1" fill="#2b3036"/><rect x="17" y="18" width="28" height="1" fill="#5b6470"/><rect x="45" y="18" width="1" height="1" fill="#2b3036"/><rect x="46" y="18" width="1" height="1" fill="#311a0c"/><rect x="47" y="18" width="1" height="1" fill="#26140a"/><rect x="48" y="18" width="1" height="1" fill="#311a0c"/><rect x="49" y="18" width="1" height="1" fill="#26140a"/><rect x="50" y="18" width="1" height="1" fill="#311a0c"/><rect x="51" y="18" width="1" height="1" fill="#26140a"/><rect x="52" y="18" width="1" height="1" fill="#311a0c"/><rect x="53" y="18" width="1" height="1" fill="#26140a"/><rect x="54" y="18" width="1" height="1" fill="#311a0c"/><rect x="55" y="18" width="1" height="1" fill="#26140a"/><rect x="56" y="18" width="1" height="1" fill="#311a0c"/><rect x="57" y="18" width="1" height="1" fill="#26140a"/><rect x="58" y="18" width="1" height="1" fill="#311a0c"/><rect x="59" y="18" width="1" height="1" fill="#26140a"/><rect x="60" y="18" width="1" height="1" fill="#311a0c"/><rect x="61" y="18" width="1" height="1" fill="#26140a"/><rect x="62" y="18" width="1" height="1" fill="#311a0c"/><rect x="63" y="18" width="1" height="1" fill="#26140a"/><rect x="0" y="19" width="1" height="1" fill="#26140a"/><rect x="1" y="19" width="1" height="1" fill="#311a0c"/><rect x="2" y="19" width="1" height="1" fill="#26140a"/><rect x="3" y="19" width="1" height="1" fill="#311a0c"/><rect x="4" y="19" width="1" height="1" fill="#26140a"/><rect x="5" y="19" width="1" height="1" fill="#311a0c"/><rect x="6" y="19" width="1" height="1" fill="#26140a"/><rect x="7" y="19" width="1" height="1" fill="#311a0c"/><rect x="8" y="19" width="1" height="1" fill="#26140a"/><rect x="9" y="19" width="1" height="1" fill="#311a0c"/><rect x="10" y="19" width="1" height="1" fill="#26140a"/><rect x="11" y="19" width="1" height="1" fill="#311a0c"/><rect x="12" y="19" width="1" height="1" fill="#26140a"/><rect x="13" y="19" width="1" height="1" fill="#311a0c"/><rect x="14" y="19" width="1" height="1" fill="#26140a"/><rect x="15" y="19" width="1" height="1" fill="#311a0c"/><rect x="16" y="19" width="30" height="1" fill="#2b3036"/><rect x="46" y="19" width="1" height="1" fill="#26140a"/><rect x="47" y="19" width="1" height="1" fill="#311a0c"/><rect x="48" y="19" width="1" height="1" fill="#26140a"/><rect x="49" y="19" width="1" height="1" fill="#311a0c"/><rect x="50" y="19" width="1" height="1" fill="#26140a"/><rect x="51" y="19" width="1" height="1" fill="#311a0c"/><rect x="52" y="19" width="1" height="1" fill="#26140a"/><rect x="53" y="19" width="1" height="1" fill="#311a0c"/><rect x="54" y="19" width="1" height="1" fill="#26140a"/><rect x="55" y="19" width="1" height="1" fill="#311a0c"/><rect x="56" y="19" width="1" height="1" fill="#26140a"/><rect x="57" y="19" width="1" height="1" fill="#311a0c"/><rect x="58" y="19" width="1" height="1" fill="#26140a"/><rect x="59" y="19" width="1" height="1" fill="#311a0c"/><rect x="60" y="19" width="1" height="1" fill="#26140a"/><rect x="61" y="19" width="1" height="1" fill="#311a0c"/><rect x="62" y="19" width="1" height="1" fill="#26140a"/><rect x="63" y="19" width="1" height="1" fill="#311a0c"/><rect x="0" y="20" width="1" height="1" fill="#311a0c"/><rect x="1" y="20" width="1" height="1" fill="#26140a"/><rect x="2" y="20" width="1" height="1" fill="#311a0c"/><rect x="3" y="20" width="1" height="1" fill="#26140a"/><rect x="4" y="20" width="1" height="1" fill="#311a0c"/><rect x="5" y="20" width="1" height="1" fill="#26140a"/><rect x="6" y="20" width="1" height="1" fill="#311a0c"/><rect x="7" y="20" width="1" height="1" fill="#26140a"/><rect x="8" y="20" width="1" height="1" fill="#311a0c"/><rect x="9" y="20" width="1" height="1" fill="#26140a"/><rect x="10" y="20" width="1" height="1" fill="#311a0c"/><rect x="11" y="20" width="1" height="1" fill="#26140a"/><rect x="12" y="20" width="1" height="1" fill="#311a0c"/><rect x="13" y="20" width="1" height="1" fill="#26140a"/><rect x="14" y="20" width="1" height="1" fill="#311a0c"/><rect x="15" y="20" width="1" height="1" fill="#26140a"/><rect x="16" y="20" width="1" height="1" fill="#311a0c"/><rect x="17" y="20" width="1" height="1" fill="#26140a"/><rect x="18" y="20" width="1" height="1" fill="#311a0c"/><rect x="19" y="20" width="1" height="1" fill="#26140a"/><rect x="20" y="20" width="1" height="1" fill="#311a0c"/><rect x="21" y="20" width="1" height="1" fill="#26140a"/><rect x="22" y="20" width="1" height="1" fill="#311a0c"/><rect x="23" y="20" width="1" height="1" fill="#26140a"/><rect x="24" y="20" width="1" height="1" fill="#311a0c"/><rect x="25" y="20" width="1" height="1" fill="#26140a"/><rect x="26" y="20" width="1" height="1" fill="#311a0c"/><rect x="27" y="20" width="1" height="1" fill="#26140a"/><rect x="28" y="20" width="1" height="1" fill="#311a0c"/><rect x="29" y="20" width="1" height="1" fill="#26140a"/><rect x="30" y="20" width="1" height="1" fill="#311a0c"/><rect x="31" y="20" width="1" height="1" fill="#26140a"/><rect x="32" y="20" width="1" height="1" fill="#311a0c"/><rect x="33" y="20" width="1" height="1" fill="#26140a"/><rect x="34" y="20" width="1" height="1" fill="#311a0c"/><rect x="35" y="20" width="1" height="1" fill="#26140a"/><rect x="36" y="20" width="1" height="1" fill="#311a0c"/><rect x="37" y="20" width="1" height="1" fill="#26140a"/><rect x="38" y="20" width="1" height="1" fill="#311a0c"/><rect x="39" y="20" width="1" height="1" fill="#26140a"/><rect x="40" y="20" width="1" height="1" fill="#311a0c"/><rect x="41" y="20" width="1" height="1" fill="#26140a"/><rect x="42" y="20" width="1" height="1" fill="#311a0c"/><rect x="43" y="20" width="1" height="1" fill="#26140a"/><rect x="44" y="20" width="1" height="1" fill="#311a0c"/><rect x="45" y="20" width="1" height="1" fill="#26140a"/><rect x="46" y="20" width="1" height="1" fill="#311a0c"/><rect x="47" y="20" width="1" height="1" fill="#26140a"/><rect x="48" y="20" width="1" height="1" fill="#311a0c"/><rect x="49" y="20" width="1" height="1" fill="#26140a"/><rect x="50" y="20" width="1" height="1" fill="#311a0c"/><rect x="51" y="20" width="1" height="1" fill="#26140a"/><rect x="52" y="20" width="1" height="1" fill="#311a0c"/><rect x="53" y="20" width="1" height="1" fill="#26140a"/><rect x="54" y="20" width="1" height="1" fill="#311a0c"/><rect x="55" y="20" width="1" height="1" fill="#26140a"/><rect x="56" y="20" width="1" height="1" fill="#311a0c"/><rect x="57" y="20" width="1" height="1" fill="#26140a"/><rect x="58" y="20" width="1" height="1" fill="#311a0c"/><rect x="59" y="20" width="1" height="1" fill="#26140a"/><rect x="60" y="20" width="1" height="1" fill="#311a0c"/><rect x="61" y="20" width="1" height="1" fill="#26140a"/><rect x="62" y="20" width="1" height="1" fill="#311a0c"/><rect x="63" y="20" width="1" height="1" fill="#26140a"/><rect x="0" y="21" width="3" height="1" fill="#1b1b1b"/><rect x="3" y="21" width="3" height="1" fill="#f2b705"/><rect x="6" y="21" width="3" height="1" fill="#1b1b1b"/><rect x="9" y="21" width="3" height="1" fill="#f2b705"/><rect x="12" y="21" width="3" height="1" fill="#1b1b1b"/><rect x="15" y="21" width="3" height="1" fill="#f2b705"/><rect x="18" y="21" width="3" height="1" fill="#1b1b1b"/><rect x="21" y="21" width="3" height="1" fill="#f2b705"/><rect x="24" y="21" width="3" height="1" fill="#1b1b1b"/><rect x="27" y="21" width="3" height="1" fill="#f2b705"/><rect x="30" y="21" width="3" height="1" fill="#1b1b1b"/><rect x="33" y="21" width="3" height="1" fill="#f2b705"/><rect x="36" y="21" width="3" height="1" fill="#1b1b1b"/><rect x="39" y="21" width="3" height="1" fill="#f2b705"/><rect x="42" y="21" width="3" height="1" fill="#1b1b1b"/><rect x="45" y="21" width="3" height="1" fill="#f2b705"/><rect x="48" y="21" width="3" height="1" fill="#1b1b1b"/><rect x="51" y="21" width="3" height="1" fill="#f2b705"/><rect x="54" y="21" width="3" height="1" fill="#1b1b1b"/><rect x="57" y="21" width="3" height="1" fill="#f2b705"/><rect x="60" y="21" width="3" height="1" fill="#1b1b1b"/><rect x="63" y="21" width="1" height="1" fill="#f2b705"/><rect x="0" y="22" width="2" height="1" fill="#1b1b1b"/><rect x="2" y="22" width="3" height="1" fill="#f2b705"/><rect x="5" y="22" width="3" height="1" fill="#1b1b1b"/><rect x="8" y="22" width="3" height="1" fill="#f2b705"/><rect x="11" y="22" width="3" height="1" fill="#1b1b1b"/><rect x="14" y="22" width="3" height="1" fill="#f2b705"/><rect x="17" y="22" width="3" height="1" fill="#1b1b1b"/><rect x="20" y="22" width="3" height="1" fill="#f2b705"/><rect x="23" y="22" width="3" height="1" fill="#1b1b1b"/><rect x="26" y="22" width="3" height="1" fill="#f2b705"/><rect x="29" y="22" width="3" height="1" fill="#1b1b1b"/><rect x="32" y="22" width="3" height="1" fill="#f2b705"/><rect x="35" y="22" width="3" height="1" fill="#1b1b1b"/><rect x="38" y="22" width="3" height="1" fill="#f2b705"/><rect x="41" y="22" width="3" height="1" fill="#1b1b1b"/><rect x="44" y="22" width="3" height="1" fill="#f2b705"/><rect x="47" y="22" width="3" height="1" fill="#1b1b1b"/><rect x="50" y="22" width="3" height="1" fill="#f2b705"/><rect x="53" y="22" width="3" height="1" fill="#1b1b1b"/><rect x="56" y="22" width="3" height="1" fill="#f2b705"/><rect x="59" y="22" width="3" height="1" fill="#1b1b1b"/><rect x="62" y="22" width="2" height="1" fill="#f2b705"/><rect x="0" y="23" width="1" height="1" fill="#1b1b1b"/><rect x="1" y="23" width="3" height="1" fill="#f2b705"/><rect x="4" y="23" width="3" height="1" fill="#1b1b1b"/><rect x="7" y="23" width="3" height="1" fill="#f2b705"/><rect x="10" y="23" width="3" height="1" fill="#1b1b1b"/><rect x="13" y="23" width="3" height="1" fill="#f2b705"/><rect x="16" y="23" width="3" height="1" fill="#1b1b1b"/><rect x="19" y="23" width="3" height="1" fill="#f2b705"/><rect x="22" y="23" width="3" height="1" fill="#1b1b1b"/><rect x="25" y="23" width="3" height="1" fill="#f2b705"/><rect x="28" y="23" width="3" height="1" fill="#1b1b1b"/><rect x="31" y="23" width="3" height="1" fill="#f2b705"/><rect x="34" y="23" width="3" height="1" fill="#1b1b1b"/><rect x="37" y="23" width="3" height="1" fill="#f2b705"/><rect x="40" y="23" width="3" height="1" fill="#1b1b1b"/><rect x="43" y="23" width="3" height="1" fill="#f2b705"/><rect x="46" y="23" width="3" height="1" fill="#1b1b1b"/><rect x="49" y="23" width="3" height="1" fill="#f2b705"/><rect x="52" y="23" width="3" height="1" fill="#1b1b1b"/><rect x="55" y="23" width="3" height="1" fill="#f2b705"/><rect x="58" y="23" width="3" height="1" fill="#1b1b1b"/><rect x="61" y="23" width="3" height="1" fill="#f2b705"/></svg>